<svg width="126" height="102" viewBox="0 0 126 102" fill="none" xmlns="http://www.w3.org/2000/svg">
<rect y="17" width="90" height="81" rx="13" fill="#E3EAE6"/>
<path d="M53.4166 102H41.3333V83.25H53.4166V102ZM38.8502 13.525L5.08331 30.125L29.25 49.2688L38.8502 13.525Z" fill="#FBC02D"/>
<path d="M96.1977 67.3687L125.917 95.75H101.75L86.1867 79.65C78.9004 85.8 69.5963 89.5 59.4584 89.5C36.1013 89.5 17.1667 69.9125 17.1667 45.75C17.1667 25.9312 29.9086 7.1187 47.375 0.981201V20.75L96.1977 67.3687Z" fill="#BF360C"/>
<path opacity="0.3" d="M93.6783 64.9688C89.0081 68.025 83.5163 69.8625 77.5833 69.8625C60.8962 69.8625 47.375 55.875 47.375 38.6125V20.75L93.6783 64.9688Z" fill="black"/>
<path opacity="0.5" d="M41.3334 36.375C41.3334 45.0062 34.5727 52 26.2292 52C22.9184 52 19.8794 50.8687 17.3902 49C17.3117 47.9187 17.1667 46.8562 17.1667 45.75C17.1667 36.9125 19.7404 28.1375 24.1206 20.7625C24.8094 20.6687 25.5163 20.75 26.2292 20.75C34.5727 20.75 41.3334 27.7437 41.3334 36.375Z" fill="black"/>
</svg>
