<svg width="126" height="134" viewBox="0 0 126 134" fill="none" xmlns="http://www.w3.org/2000/svg">
<rect y="36" width="90" height="81" rx="13" fill="#E3EAE6"/>
<path d="M110.25 33.5V44.6666C104.459 44.6666 99.75 49.6749 99.75 55.8333V100.5C99.75 112.817 90.3315 122.833 78.75 122.833H31.5V55.8333V50.25H21L15.75 39.0833L24.5385 26.7776L24.549 26.8055C26.376 24.7174 28.77 23.2043 31.5 22.6125V11.1666C31.5 11.1666 52.5 16.75 52.5 33.5C52.5 37.2966 52.5473 48.8374 52.5788 55.8333H57.75C69.3473 55.8333 78.75 65.833 78.75 78.1666V111.667C84.5408 111.667 89.25 106.658 89.25 100.5V55.8333C89.25 43.5165 98.6685 33.5 110.25 33.5Z" fill="#BDBDBD"/>
<path opacity="0.3" d="M89.25 55.8333V100.5C89.25 106.642 84.525 111.667 78.75 111.667V122.833C78.8497 122.833 79.065 122.833 79.275 122.778C80.115 122.722 81.7478 122.443 83.9528 122.108C93.03 119.651 99.75 110.941 99.75 100.5V55.8333C99.75 49.6917 104.475 44.6667 110.25 44.6667V33.5C98.6475 33.5 89.25 43.4942 89.25 55.8333ZM42 122.833H52.5C52.5 116.692 57.225 111.667 63 111.667V100.5C51.3975 100.5 42 110.494 42 122.833Z" fill="black"/>
</svg>
