<svg width="125" height="115" viewBox="0 0 125 115" fill="none" xmlns="http://www.w3.org/2000/svg">
<rect x="10" y="22" width="90" height="81" rx="13" fill="#E3EAE6"/>
<path d="M114.583 38.3334V76.6667C114.583 78.4827 113.469 80.1407 111.703 80.9552C110.969 81.2907 110.167 81.4584 109.375 81.4584C108.271 81.4584 107.167 81.1373 106.25 80.5L88.9792 68.5832L98.9584 105.417L37.7604 86.595C19.8594 81.6069 10.4167 57.5 10.4167 57.5C10.4167 57.5 19.8594 34.1167 37.7604 28.5727L99.0573 9.58337L89.0208 46.3882L106.25 34.5C107.828 33.4123 109.938 33.235 111.703 34.0448C113.469 34.8594 114.583 36.5173 114.583 38.3334Z" fill="#FF8F00"/>
<path opacity="0.4" d="M89.0104 46.3834L99.0625 9.58337L62.5 20.8917V26.5459L84.3229 24.2459L75.2084 57.7875L84.2657 90.8021L62.5 88.5021V94.209L98.9584 105.417L88.9584 68.5688L89.0104 46.3834ZM41.6667 87.7834L54.6875 91.8084V87.6875L41.6667 86.298V87.7834ZM41.6667 28.75L54.6875 27.3605V23.3355L41.6667 27.3605V28.75Z" fill="white"/>
<path opacity="0.3" d="M28.6459 55.1041C28.6459 57.7491 26.3125 59.8958 23.4375 59.8958C20.5625 59.8958 18.2292 57.7491 18.2292 55.1041C18.2292 52.4591 20.5625 50.3125 23.4375 50.3125C26.3125 50.3125 28.6459 52.4591 28.6459 55.1041ZM41.6667 28.75V27.3604L37.7604 28.5727C36.4063 28.9895 35.1094 29.5214 33.8542 30.1252V85.1431C35.1094 85.7181 36.4063 86.2164 37.7604 86.595L41.6667 87.7977V87.7833V86.2979V28.75ZM62.5 88.5021V26.5458V20.906L54.6875 23.3258V23.3354V27.3604V87.6875V91.8035L62.5 94.2041V88.5021ZM89.0104 46.4408L88.9584 68.5064L88.9792 68.5831L98.9584 75.4687V39.5312L89.0208 46.3881L89.0104 46.4408Z" fill="black"/>
</svg>
