<svg width="121" height="100" viewBox="0 0 121 100" fill="none" xmlns="http://www.w3.org/2000/svg">
<rect x="15" y="6" width="90" height="81" rx="13" fill="#E3EAE6"/>
<path d="M120.917 90.625C120.917 95.8 116.857 100 111.854 100C106.852 100 102.792 95.8 102.792 90.625C102.792 90.0437 102.725 77.6625 84.6184 75.3937C84.3405 87.45 72.5834 87.5 72.5834 87.5V75H60.5C60.5 87.5 48.4167 87.5 48.4167 87.5V74.675C46.0544 74.4313 43.6861 74.0187 41.3419 73.4187C37.5417 81.225 24.25 81.25 24.25 81.25L30.3219 68.6937C27.283 66.7313 24.4615 64.2125 21.9905 61.025C17.2175 62.75 12.1667 62.5 12.1667 62.5L17.9848 54.4813C16.42 51.3125 15.0969 47.7375 14.1363 43.6C11.623 43.8937 8.88608 43.9625 6.12504 43.75L12.7286 34.6438C12.6138 33.5063 12.4628 32.425 12.3903 31.225C12.3117 31.2313 12.2452 31.25 12.1667 31.25C5.49067 31.25 0.083374 25.6562 0.083374 18.75C0.083374 14.7688 1.914 11.2687 4.71129 8.98125L12.1667 3.19375C14.6982 1.21875 17.8157 0 21.2292 0C26.5761 0 31.2463 2.89375 33.9288 7.225C33.9288 7.225 39.7348 18.2875 41.8071 24.125C46.9788 38.6625 49.7459 43.75 60.5 43.75H78.625C109.021 43.75 120.917 62.5 120.917 90.625Z" fill="#9CCC65"/>
<path opacity="0.4" d="M111.854 100C106.852 100 102.792 95.8 102.792 90.625C102.792 89.9812 102.792 75 78.6249 75H54.4583C36.1822 75 14.6195 67.1687 12.3902 31.225C12.3116 31.2312 24.2499 31.25 24.2499 31.25C31.3308 56.8375 49.7458 56.25 60.5 56.25H72.5833C120.917 56.25 111.854 100 111.854 100Z" fill="white"/>
<path opacity="0.3" d="M54.4583 75H60.5C60.5 87.5 48.4167 87.5 48.4167 87.5V74.675C50.4467 74.8876 52.4767 75 54.4583 75ZM78.625 75H72.5833V87.5C72.5833 87.5 84.3404 87.4501 84.6183 75.3938C82.7877 75.1625 80.8423 75 78.625 75ZM30.3219 68.6938L24.25 81.25C24.25 81.25 37.5417 81.225 41.3419 73.4188C37.5175 72.4313 33.7777 70.9251 30.3219 68.6938ZM17.9848 54.4813L12.1667 62.5C12.1667 62.5 17.2175 62.75 21.9904 61.025C20.5102 59.1063 19.181 56.9063 17.9848 54.4813ZM12.7285 34.6438L6.125 43.75C8.88604 43.9625 11.6229 43.8938 14.1363 43.5938C13.4958 40.8626 13.0548 37.8375 12.7285 34.6438Z" fill="black"/>
</svg>
