<svg width="129" height="91" viewBox="0 0 129 91" fill="none" xmlns="http://www.w3.org/2000/svg">
<rect x="21" width="90" height="81" rx="13" fill="#E3EAE6"/>
<path d="M128.5 53C128.5 90.5 84.75 90.5 28.5 90.5C28.5 90.5 28.4813 77.9688 41 78C83.4062 78.1125 87.5813 66.8125 87.875 63.3813C87.7812 62.8313 87.7 62.2625 87.625 61.6937L53.5 53.5V65.5H34.75L41 59.25V50.5L25.375 46.75H9.75L3.5 40.5L26.225 35.9562L0.375 28V21.75H34.75C43.0438 21.75 50.3375 23.5875 54.8812 28H103.5C117.306 28 128.5 39.1937 128.5 53Z" fill="#2E7D32"/>
<path opacity="0.3" d="M103.5 40.5V49.875C95.175 49.875 87.6313 56.7125 87.6313 61.6938L78.9625 59.6125C81.1063 48.9125 91.4438 40.5 103.5 40.5Z" fill="black"/>
<path opacity="0.4" d="M41 50.5L25.375 46.75H9.75L3.5 40.5H28.5L41 43.0813V50.5ZM53.5 45.6625V53.5L78.9563 59.6125C79.525 56.7937 80.6875 54.15 82.2688 51.7625C82.2813 51.725 82.325 51.625 82.325 51.625L53.5 45.6625ZM128.5 53C128.5 53.4875 128.413 53.9 128.394 54.375C128.406 54.325 128.425 54.2625 128.444 54.2125C128.456 53.8063 128.5 53.4187 128.5 53ZM128.081 58.4625C128.25 57.1562 128.35 55.7875 128.394 54.375C125.963 63.3375 113.588 84.25 59.75 84.25C52.325 84.25 30.05 84.25 30.05 84.25C28.5 87.375 28.5 90.5 28.5 90.5C80.8688 90.5 122.356 90.4625 127.838 60.2C127.944 59.6375 128 59.0437 128.081 58.4625Z" fill="white"/>
</svg>
